# xmcd
#
# Track frame offsets:
#	150
#	17254
#	32645
#	52251
#	67584
#	85253
#	103895
#	121114
#	137757
#	153045
#	170679
#	185670
#
# Disc length: 2730 seconds
#
# Revision: 1
# Processed by: cddbd v1.5.2PL0 Copyright (c) Steve Scherf et al.
# Submitted via: audiograbber 1.83.01
#
DISCID=940aa80c
DTITLE=Jason Jones - It Ain't Just Music
DYEAR=2007
DGENRE=Country
TTITLE0=My Love Will Take You Farther
TTITLE1=Hard Rain
TTITLE2=A Place Down in Georgia
TTITLE3=Get to Me
TTITLE4=Leanin' on the Bar
TTITLE5=Whatever You Want (Love Slave)
TTITLE6=Everything Reminds Me of You
TTITLE7=Leavin' Lonely Behind
TTITLE8=Walk on Me
TTITLE9=You're My Favorite
TTITLE10=Love Life
TTITLE11=It Ain't Just Music
EXTD=www.jasonjonesmusic.com\nwww.myspace.com/jonesville
EXTT0=
EXTT1=
EXTT2=
EXTT3=
EXTT4=
EXTT5=
EXTT6=
EXTT7=
EXTT8=
EXTT9=
EXTT10=
EXTT11=
PLAYORDER=
